<svg width="44" height="30" viewBox="0 0 44 30" fill="none" xmlns="http://www.w3.org/2000/svg">
<path d="M42.2651 4.68367C42.0212 3.77761 41.5436 2.9515 40.8801 2.28801C40.2166 1.62453 39.3905 1.14694 38.4844 0.903062C35.1477 2.73695e-07 21.7395 0 21.7395 0C21.7395 0 8.33138 2.73695e-07 4.99464 0.903062C4.08858 1.14694 3.26246 1.62453 2.59898 2.28801C1.93549 2.9515 1.45791 3.77761 1.21403 4.68367C0.590985 8.08663 0.288639 11.5405 0.310966 15C0.288639 18.4595 0.590985 21.9134 1.21403 25.3163C1.45791 26.2224 1.93549 27.0485 2.59898 27.712C3.26246 28.3755 4.08858 28.8531 4.99464 29.0969C8.33138 30 21.7395 30 21.7395 30C21.7395 30 35.1477 30 38.4844 29.0969C39.3905 28.8531 40.2166 28.3755 40.8801 27.712C41.5436 27.0485 42.0212 26.2224 42.2651 25.3163C42.8881 21.9134 43.1904 18.4595 43.1681 15C43.1904 11.5405 42.8881 8.08663 42.2651 4.68367V4.68367ZM17.4538 21.4286V8.57143L28.5814 15L17.4538 21.4286Z" fill="white"/>
</svg>
