<svg width="31" height="30" viewBox="0 0 31 30" fill="none" xmlns="http://www.w3.org/2000/svg">
<path d="M15.3058 9.99787C12.5515 9.99787 10.3037 12.2456 10.3037 15C10.3037 17.7544 12.5515 20.0021 15.3058 20.0021C18.0601 20.0021 20.3078 17.7544 20.3078 15C20.3078 12.2456 18.0601 9.99787 15.3058 9.99787ZM30.3081 15C30.3081 12.9286 30.3269 10.876 30.2106 8.80832C30.0943 6.40669 29.5464 4.27525 27.7902 2.51907C26.0303 0.759128 23.9027 0.215011 21.5011 0.098682C19.4297 -0.0176466 17.3771 0.00111617 15.3095 0.00111617C13.2382 0.00111617 11.1856 -0.0176466 9.11797 0.098682C6.71639 0.215011 4.58499 0.762881 2.82884 2.51907C1.06893 4.27901 0.524821 6.40669 0.408495 8.80832C0.292168 10.8797 0.310931 12.9324 0.310931 15C0.310931 17.0676 0.292168 19.124 0.408495 21.1917C0.524821 23.5933 1.07268 25.7247 2.82884 27.4809C4.58874 29.2409 6.71639 29.785 9.11797 29.9013C11.1893 30.0176 13.2419 29.9989 15.3095 29.9989C17.3809 29.9989 19.4335 30.0176 21.5011 29.9013C23.9027 29.785 26.0341 29.2371 27.7902 27.4809C29.5501 25.721 30.0943 23.5933 30.2106 21.1917C30.3307 19.124 30.3081 17.0714 30.3081 15V15ZM15.3058 22.6965C11.0467 22.6965 7.60948 19.2591 7.60948 15C7.60948 10.7409 11.0467 7.30355 15.3058 7.30355C19.5648 7.30355 23.0021 10.7409 23.0021 15C23.0021 19.2591 19.5648 22.6965 15.3058 22.6965ZM23.3173 8.7858C22.3229 8.7858 21.5199 7.98276 21.5199 6.98834C21.5199 5.99392 22.3229 5.19087 23.3173 5.19087C24.3117 5.19087 25.1147 5.99392 25.1147 6.98834C25.115 7.22447 25.0687 7.45834 24.9785 7.67655C24.8883 7.89476 24.7559 8.09303 24.5889 8.26C24.422 8.42697 24.2237 8.55936 24.0055 8.64958C23.7873 8.73981 23.5534 8.7861 23.3173 8.7858V8.7858Z" fill="white"/>
</svg>
